<mxfile host="app.diagrams.net" modified="2023-08-25T22:20:49.010Z" agent="Mozilla/5.0 (Windows NT 10.0; Win64; x64) AppleWebKit/537.36 (KHTML, like Gecko) Chrome/116.0.0.0 Safari/537.36" version="21.6.9" etag="UtZzFpEbpo32Y-g5JLrL" type="github">
  <diagram name="Page-1" id="t6sl1d8PlnptaLNUKfqY">
    <mxGraphModel>
      <root>
        <mxCell id="0" />
        <mxCell id="1" parent="0" />
      </root>
    </mxGraphModel>
  </diagram>
</mxfile>
